HIERARCHY
ROOT Hips
{
	OFFSET 0.000000 0.000000 0.000000
	CHANNELS 6 Xposition Yposition Zposition Xrotation Yrotation Zrotation
	JOINT LeftUpLeg_virtual
	{
		OFFSET 0.000000 0.000000 0.000000
		CHANNELS 3 Xrotation Yrotation Zrotation
		JOINT LeftUpLeg
		{
			OFFSET 13.026900 -6.336304 -1.092800
			CHANNELS 3 Xrotation Yrotation Zrotation
			JOINT LeftLeg
			{
				OFFSET 0.524474 -46.096886 9.782700
				CHANNELS 3 Xrotation Yrotation Zrotation
				JOINT LeftFoot
				{
					OFFSET -0.524474 -53.427422 -12.948200
					CHANNELS 3 Xrotation Yrotation Zrotation
					JOINT LeftToeBase
					{
						OFFSET 0.192200 -14.009700 16.364100
						CHANNELS 3 Xrotation Yrotation Zrotation
						JOINT LeftToe_End
						{
							OFFSET -1.784700 -0.561700 9.474800
							CHANNELS 3 Xrotation Yrotation Zrotation
							End Site
							{
								OFFSET 0 0 0
							}
						}
					}
				}
			}
		}
	}
	JOINT RightUpLeg_virtual
	{
		OFFSET 0.000000 0.000000 0.000000
		CHANNELS 3 Xrotation Yrotation Zrotation
		JOINT RightUpLeg
		{
			OFFSET -12.883000 -6.336304 -1.092800
			CHANNELS 3 Xrotation Yrotation Zrotation
			JOINT RightLeg
			{
				OFFSET -0.524587 -46.096825 9.782800
				CHANNELS 3 Xrotation Yrotation Zrotation
				JOINT RightFoot
				{
					OFFSET 0.524587 -53.427383 -12.948300
					CHANNELS 3 Xrotation Yrotation Zrotation
					JOINT RightToeBase
					{
						OFFSET -0.192200 -14.009700 16.364100
						CHANNELS 3 Xrotation Yrotation Zrotation
						JOINT RightToe_End
						{
							OFFSET 1.784700 -0.561700 9.474800
							CHANNELS 3 Xrotation Yrotation Zrotation
							End Site
							{
								OFFSET 0 0 0
							}
						}
					}
				}
			}
		}
	}
	JOINT Spine_virtual
	{
		OFFSET 0.000000 0.000000 0.000000
		CHANNELS 3 Xrotation Yrotation Zrotation
		JOINT Spine
		{
			OFFSET 0.072000 7.257294 -0.789700
			CHANNELS 3 Xrotation Yrotation Zrotation
			JOINT Spine1
			{
				OFFSET 0.000000 12.508769 -0.658067
				CHANNELS 3 Xrotation Yrotation Zrotation
				JOINT Spine1_split
				{
					OFFSET 0.000000 12.508769 -0.658067
					CHANNELS 3 Xrotation Yrotation Zrotation
					JOINT Spine2
					{
						OFFSET 0.000000 12.508769 -0.658067
						CHANNELS 3 Xrotation Yrotation Zrotation
						JOINT Neck_virtual
						{
							OFFSET 0.000000 0.000000 0.000000
							CHANNELS 3 Xrotation Yrotation Zrotation
							JOINT Neck
							{
								OFFSET 0.000000 14.033295 7.520400
								CHANNELS 3 Xrotation Yrotation Zrotation
								JOINT Head
								{
									OFFSET 0.000000 8.198502 5.703100
									CHANNELS 3 Xrotation Yrotation Zrotation
									JOINT HeadTop_End
									{
										OFFSET 0.000000 17.760803 13.332701
										CHANNELS 3 Xrotation Yrotation Zrotation
										End Site
										{
											OFFSET 0 0 0
										}
									}
								}
							}
						}
						JOINT LeftShoulder_virtual
						{
							OFFSET 0.000000 0.000000 0.000000
							CHANNELS 3 Xrotation Yrotation Zrotation
							JOINT LeftShoulder
							{
								OFFSET 6.292450 5.785301 -0.669000
								CHANNELS 3 Xrotation Yrotation Zrotation
								JOINT LeftShoulder_split
								{
									OFFSET 6.292450 5.785301 -0.669000
									CHANNELS 3 Xrotation Yrotation Zrotation
									JOINT LeftArm
									{
										OFFSET 13.907140 -6.093903 1.965100
										CHANNELS 3 Xrotation Yrotation Zrotation
										JOINT LeftForeArm
										{
											OFFSET 34.140198 0.000000 0.000000
											CHANNELS 3 Xrotation Yrotation Zrotation
											JOINT LeftHand
											{
												OFFSET 40.960209 0.000000 0.000000
												CHANNELS 3 Xrotation Yrotation Zrotation
												End Site
												{
													OFFSET 0 0 0
												}
											}
										}
									}
								}
							}
						}
						JOINT RightShoulder_virtual
						{
							OFFSET 0.000000 0.000000 0.000000
							CHANNELS 3 Xrotation Yrotation Zrotation
							JOINT RightShoulder
							{
								OFFSET -6.292450 5.785301 -0.669000
								CHANNELS 3 Xrotation Yrotation Zrotation
								JOINT RightShoulder_split
								{
									OFFSET -6.292450 5.785301 -0.669000
									CHANNELS 3 Xrotation Yrotation Zrotation
									JOINT RightArm
									{
										OFFSET -13.907140 -6.093903 1.965100
										CHANNELS 3 Xrotation Yrotation Zrotation
										JOINT RightForeArm
										{
											OFFSET -34.140198 0.000000 0.000000
											CHANNELS 3 Xrotation Yrotation Zrotation
											JOINT RightHand
											{
												OFFSET -40.960209 0.000000 0.000000
												CHANNELS 3 Xrotation Yrotation Zrotation
												End Site
												{
													OFFSET 0 0 0
												}
											}
										}
									}
								}
							}
						}
					}
				}
			}
		}
	}
}
MOTION
Frames: 7
Frame Time: 0.03333333
4.576493 98.412903 -10.738773 0.000000 0.000000 0.000000 -9.740038 14.018469 1.676734 -22.046199 1.416045 13.370427 48.353511 0.703432 1.002665 -14.335059 2.627900 -15.538547 -0.302599 -2.202570 1.319850 0.000000 0.000000 0.000000 -8.928716 12.088338 1.412867 -15.909302 -11.885098 -10.668170 50.660886 7.991646 -4.370851 -21.662561 -21.719566 19.161158 1.284357 5.983146 -9.315226 0.000000 0.000000 0.000000 -6.948982 21.511423 0.497064 16.111151 -8.223129 1.408768 4.646079 -3.226851 0.293361 -0.004099 0.280749 0.092501 0.000000 0.000000 0.000000 4.816065 -0.863025 0.582213 -20.899110 9.850034 10.958060 -16.378278 -5.060492 13.658206 0.000000 0.000000 0.000000 4.774885 -2.338160 -0.744770 4.570588 2.546540 -8.244422 -2.066534 -3.054488 -1.327137 -18.408866 4.673547 -49.337393 112.616446 -48.590253 101.511842 0.000000 0.000000 0.000000 6.663671 -1.525915 0.302663 1.064940 0.103099 15.589538 -7.045842 -2.388950 4.148135 -9.754203 24.229073 65.080973 -164.243524 74.515424 165.569537 0.000000 0.000000 0.000000 
4.793685 98.378723 -10.707912 0.000000 0.000000 0.000000 -9.842063 14.451956 1.781268 -22.124461 1.257499 13.471694 49.195967 0.427162 1.200346 -14.005743 2.555225 -15.910600 -0.302773 -2.201808 1.345302 0.000000 0.000000 0.000000 -8.793980 12.622179 1.407265 -15.808816 -11.654476 -10.698314 50.833195 8.212884 -4.427189 -21.599548 -21.890150 19.575124 1.089727 6.007267 -9.336732 0.000000 0.000000 0.000000 -7.055473 22.026684 0.423743 15.950599 -8.216155 1.439757 4.713637 -3.251323 0.505968 0.063082 0.279177 0.103367 0.000000 0.000000 0.000000 4.908581 -0.807676 0.623409 -19.625645 10.494046 10.514130 -17.003611 -5.377527 13.957002 0.000000 0.000000 0.000000 5.007296 -2.403351 -0.381447 4.525149 2.074210 -7.946502 -1.813663 -2.182895 -1.541370 -20.126305 4.266670 -49.479974 111.091633 -50.262973 100.146781 0.000000 0.000000 0.000000 6.971872 -1.585980 0.540198 1.575661 0.118657 17.125890 -6.791986 -1.805990 6.891253 -7.638989 23.363287 62.903460 -163.151158 75.268043 165.580287 0.000000 0.000000 0.000000 
5.034719 98.322212 -10.759762 0.000000 0.000000 0.000000 -9.741349 15.585245 1.888366 -22.570601 0.452684 13.299622 50.115417 0.293867 1.465281 -13.687726 2.459230 -16.191515 -0.454364 -2.193372 1.387757 0.000000 0.000000 0.000000 -8.519817 13.722604 1.433921 -15.238494 -12.391283 -10.667926 50.349026 8.225339 -4.332476 -22.318451 -22.356290 19.233625 1.887836 5.953379 -9.564060 0.000000 0.000000 0.000000 -7.277064 23.261007 0.488325 15.762036 -8.230089 1.321801 4.788658 -3.604632 1.081068 0.103964 0.242905 0.139571 0.000000 0.000000 0.000000 4.927807 -1.041555 1.052340 -17.939350 11.059050 10.014215 -16.816988 -5.972847 13.352373 0.000000 0.000000 0.000000 5.236256 -2.716311 0.417562 4.533281 0.895388 -7.744541 -2.023910 -1.390080 -2.685078 -20.396231 1.278642 -47.985986 105.804227 -52.096308 93.835864 0.000000 0.000000 0.000000 7.277569 -2.064394 1.129036 2.201830 -0.576455 19.515090 -7.443503 -0.478458 8.401793 -4.010880 23.642997 56.876153 -161.041080 74.261273 164.384895 0.000000 0.000000 0.000000 
5.256115 98.328804 -10.929432 0.000000 0.000000 0.000000 -9.398835 17.170860 1.934919 -23.315112 -0.876440 12.825056 50.734481 0.379551 1.747001 -13.490537 2.408723 -16.349758 -0.460547 -2.158209 1.329128 0.000000 0.000000 0.000000 -8.247001 15.163580 1.506765 -14.345687 -13.990809 -10.639180 49.321517 8.114050 -4.067466 -23.295677 -22.940415 18.489215 3.141637 5.865247 -9.946580 0.000000 0.000000 0.000000 -7.451279 24.943613 0.562661 15.595595 -8.297981 1.128605 4.858994 -4.203332 1.858372 0.111167 0.136723 0.159302 0.000000 0.000000 0.000000 4.809058 -1.471586 1.776395 -16.225348 11.296907 9.647267 -15.700863 -6.934781 12.047788 0.000000 0.000000 0.000000 5.510446 -3.183787 1.476983 4.602114 -0.730065 -7.765001 -1.938902 -1.157437 -3.820854 -18.948007 -3.922408 -44.850021 97.323666 -53.266531 83.127637 0.000000 0.000000 0.000000 7.452979 -2.800383 1.909901 2.926760 -1.779215 21.759183 -8.887330 1.200533 8.115656 -0.602857 23.948633 48.612905 -157.438251 72.639991 161.060655 0.000000 0.000000 0.000000 
5.472299 98.524017 -11.093403 0.000000 0.000000 0.000000 -8.909704 18.996899 1.928568 -24.166598 -2.516725 12.087216 50.704640 0.731379 1.957385 -13.419503 2.345033 -16.286750 -0.305269 -2.127216 1.142618 0.000000 0.000000 0.000000 -8.038306 16.863597 1.621223 -13.060246 -16.111954 -10.564476 47.721770 8.105527 -3.712901 -24.030817 -23.427885 17.846663 3.737603 5.826899 -10.381930 0.000000 0.000000 0.000000 -7.552323 26.921273 0.653838 15.494913 -8.506364 0.942347 4.867625 -4.898691 2.649929 0.178605 0.075797 0.064074 0.000000 0.000000 0.000000 4.641086 -1.971829 2.639964 -14.725671 10.994599 9.546180 -13.788054 -9.018280 10.297619 0.000000 0.000000 0.000000 5.712644 -3.658590 2.522745 4.656333 -2.409752 -8.170764 -1.632615 -1.451320 -4.367625 -16.029621 -10.061502 -40.429720 87.717005 -53.219451 70.407946 0.000000 0.000000 0.000000 7.434125 -3.573811 2.676377 3.674622 -3.320616 23.003698 -9.726198 2.347078 7.379156 -0.073758 23.286120 40.397810 -153.204094 70.127089 156.304071 0.000000 0.000000 0.000000 
5.742551 99.045097 -11.182133 0.000000 0.000000 0.000000 -8.381282 20.859876 1.880854 -25.032414 -4.313799 11.242947 49.986282 1.038538 2.157043 -13.021863 2.073559 -16.497161 -0.268928 -2.110824 0.949678 0.000000 0.000000 0.000000 -7.758700 18.622967 1.687989 -11.260191 -18.326702 -10.350785 45.501006 8.268580 -3.340190 -24.375584 -23.679345 17.376590 3.396635 5.857206 -10.751578 0.000000 0.000000 0.000000 -7.521100 28.987190 0.763678 15.463039 -8.903956 0.872757 4.729308 -5.476063 3.271453 0.204470 0.050255 -0.135058 0.000000 0.000000 0.000000 4.549342 -2.372644 3.434428 -13.519825 10.071770 9.675460 -11.339966 -12.949643 8.471782 0.000000 0.000000 0.000000 5.709601 -3.904680 3.298130 4.617881 -3.801430 -9.043499 -1.214120 -1.943013 -4.663813 -12.791484 -15.471905 -35.356170 79.629788 -52.181542 58.719246 0.000000 0.000000 0.000000 7.200788 -4.114358 3.237792 4.238785 -4.926046 22.448525 -10.031377 3.571207 7.164653 -4.785783 21.782648 34.447017 -150.044926 66.262370 151.989030 0.000000 0.000000 0.000000 
6.049170 99.937538 -11.043957 0.000000 0.000000 0.000000 -7.723914 22.661627 1.836015 -25.782634 -5.902369 10.390640 48.615319 1.033021 2.368329 -12.111946 1.540926 -17.181158 -0.516870 -2.112345 0.823889 0.000000 0.000000 0.000000 -7.303164 20.474155 1.688671 -9.060314 -20.375129 -10.004411 42.716532 8.460321 -2.945560 -24.509505 -23.689791 16.606268 2.845177 5.877616 -10.903397 0.000000 0.000000 0.000000 -7.253439 30.899386 0.887292 15.499861 -9.415848 1.019189 4.418263 -5.664665 3.610082 0.236908 0.016088 -0.260487 0.000000 0.000000 0.000000 4.488751 -2.423914 3.981739 -12.746108 8.617530 9.956789 -9.146229 -18.506082 6.799035 0.000000 0.000000 0.000000 5.437289 -3.793699 3.656633 4.447762 -4.890090 -10.344012 -0.751331 -3.228370 -4.552797 -10.205700 -18.829699 -30.899209 74.356124 -50.809835 49.675413 0.000000 0.000000 0.000000 6.713678 -4.263087 3.511007 4.586144 -6.301841 20.190454 -10.644388 4.596134 8.138035 -15.601441 19.578503 30.930027 -148.421459 61.070395 148.979458 0.000000 0.000000 0.000000 
